<mxfile host="65bd71144e">
    <diagram id="PoFq0DZodXpT3BJYksQR" name="Page-1">
        <mxGraphModel dx="2950" dy="1561" grid="0" gridSize="10" guides="1" tooltips="1" connect="1" arrows="1" fold="1" page="0" pageScale="1" pageWidth="850" pageHeight="1100" math="0" shadow="0">
            <root>
                <mxCell id="0"/>
                <mxCell id="1" parent="0"/>
                <mxCell id="3" value="" style="rounded=1;whiteSpace=wrap;html=1;" parent="1" vertex="1">
                    <mxGeometry x="191" y="-23" width="1227" height="782" as="geometry"/>
                </mxCell>
                <mxCell id="4" value="Community Space Domain Model" style="text;html=1;strokeColor=none;fillColor=none;align=center;verticalAlign=middle;whiteSpace=wrap;rounded=0;fontSize=20;rotation=0;fontStyle=1;labelBackgroundColor=default;" parent="1" vertex="1">
                    <mxGeometry x="1091" y="-48" width="181" height="49" as="geometry"/>
                </mxCell>
                <mxCell id="12" value="" style="group;flipH=1;" parent="1" vertex="1" connectable="0">
                    <mxGeometry x="640" y="276" width="329" height="184" as="geometry"/>
                </mxCell>
                <mxCell id="6" value="" style="rounded=0;whiteSpace=wrap;html=1;fontSize=18;" parent="12" vertex="1">
                    <mxGeometry width="329" height="184" as="geometry"/>
                </mxCell>
                <mxCell id="7" value="Account Mgmt." style="text;html=1;strokeColor=none;fillColor=none;align=center;verticalAlign=middle;whiteSpace=wrap;rounded=0;fontSize=18;" parent="12" vertex="1">
                    <mxGeometry x="257" y="15" width="60" height="30" as="geometry"/>
                </mxCell>
                <mxCell id="10" value="User" style="ellipse;whiteSpace=wrap;html=1;fontSize=18;" parent="12" vertex="1">
                    <mxGeometry x="32" y="20" width="120" height="80" as="geometry"/>
                </mxCell>
                <mxCell id="54" value="Identity &amp;amp;&lt;br&gt;Access" style="ellipse;whiteSpace=wrap;html=1;fontSize=18;dashed=1;" vertex="1" parent="12">
                    <mxGeometry x="152" y="86" width="120" height="80" as="geometry"/>
                </mxCell>
                <mxCell id="65" value="&lt;i&gt;Generic&lt;br&gt;Domain&lt;br&gt;&lt;/i&gt;" style="text;html=1;strokeColor=none;fillColor=none;align=center;verticalAlign=middle;whiteSpace=wrap;rounded=0;dashed=1;" vertex="1" parent="12">
                    <mxGeometry x="11" y="140" width="60" height="30" as="geometry"/>
                </mxCell>
                <mxCell id="24" value="" style="group;flipH=1;" parent="1" vertex="1" connectable="0">
                    <mxGeometry x="1042" y="233" width="329" height="270" as="geometry"/>
                </mxCell>
                <mxCell id="18" value="" style="rounded=0;whiteSpace=wrap;html=1;fontSize=18;" parent="24" vertex="1">
                    <mxGeometry width="329" height="270" as="geometry"/>
                </mxCell>
                <mxCell id="19" value="Memo&lt;br&gt;Mgmt." style="text;html=1;strokeColor=none;fillColor=none;align=center;verticalAlign=middle;whiteSpace=wrap;rounded=0;fontSize=18;" parent="24" vertex="1">
                    <mxGeometry x="257" y="15" width="60" height="30" as="geometry"/>
                </mxCell>
                <mxCell id="20" value="Memo" style="ellipse;whiteSpace=wrap;html=1;fontSize=18;" parent="24" vertex="1">
                    <mxGeometry x="104.5" y="52" width="120" height="80" as="geometry"/>
                </mxCell>
                <mxCell id="21" value="Hub" style="ellipse;whiteSpace=wrap;html=1;fontSize=18;dashed=1;dashPattern=8 8;" parent="24" vertex="1">
                    <mxGeometry x="104.5" y="157" width="120" height="80" as="geometry"/>
                </mxCell>
                <mxCell id="57" value="&lt;i&gt;Core Domain&lt;/i&gt;" style="text;html=1;strokeColor=none;fillColor=none;align=center;verticalAlign=middle;whiteSpace=wrap;rounded=0;dashed=1;" vertex="1" parent="24">
                    <mxGeometry x="257" y="229" width="60" height="30" as="geometry"/>
                </mxCell>
                <mxCell id="13" value="" style="group" parent="1" vertex="1" connectable="0">
                    <mxGeometry x="243" y="497" width="329" height="184" as="geometry"/>
                </mxCell>
                <mxCell id="14" value="" style="rounded=0;whiteSpace=wrap;html=1;fontSize=18;" parent="13" vertex="1">
                    <mxGeometry width="329" height="184" as="geometry"/>
                </mxCell>
                <mxCell id="15" value="Hub&lt;br&gt;Mgmt." style="text;html=1;strokeColor=none;fillColor=none;align=center;verticalAlign=middle;whiteSpace=wrap;rounded=0;fontSize=18;" parent="13" vertex="1">
                    <mxGeometry x="12" y="15" width="60" height="30" as="geometry"/>
                </mxCell>
                <mxCell id="16" value="Hub" style="ellipse;whiteSpace=wrap;html=1;fontSize=18;" parent="13" vertex="1">
                    <mxGeometry x="104.5" y="52" width="120" height="80" as="geometry"/>
                </mxCell>
                <mxCell id="56" value="&lt;i&gt;Core Domain&lt;/i&gt;" style="text;html=1;strokeColor=none;fillColor=none;align=center;verticalAlign=middle;whiteSpace=wrap;rounded=0;dashed=1;" vertex="1" parent="13">
                    <mxGeometry x="263" y="12" width="60" height="30" as="geometry"/>
                </mxCell>
                <mxCell id="32" value="" style="group" parent="1" vertex="1" connectable="0">
                    <mxGeometry x="243" y="33" width="329" height="318" as="geometry"/>
                </mxCell>
                <mxCell id="26" value="" style="rounded=0;whiteSpace=wrap;html=1;fontSize=18;" parent="32" vertex="1">
                    <mxGeometry width="329" height="318" as="geometry"/>
                </mxCell>
                <mxCell id="27" value="Activity-Notifications&lt;br&gt;Mgmt." style="text;html=1;strokeColor=none;fillColor=none;align=center;verticalAlign=middle;whiteSpace=wrap;rounded=0;fontSize=18;" parent="32" vertex="1">
                    <mxGeometry x="33" y="22" width="60" height="30" as="geometry"/>
                </mxCell>
                <mxCell id="28" value="Activity" style="ellipse;whiteSpace=wrap;html=1;fontSize=18;" parent="32" vertex="1">
                    <mxGeometry x="39" y="93" width="120" height="80" as="geometry"/>
                </mxCell>
                <mxCell id="29" value="Notifications" style="ellipse;whiteSpace=wrap;html=1;fontSize=18;" parent="32" vertex="1">
                    <mxGeometry x="182.5" y="93" width="120" height="80" as="geometry"/>
                </mxCell>
                <mxCell id="30" value="Memo" style="ellipse;whiteSpace=wrap;html=1;fontSize=18;dashed=1;dashPattern=8 8;" parent="32" vertex="1">
                    <mxGeometry x="39" y="204" width="120" height="80" as="geometry"/>
                </mxCell>
                <mxCell id="31" value="Hub" style="ellipse;whiteSpace=wrap;html=1;fontSize=18;dashed=1;dashPattern=8 8;" parent="32" vertex="1">
                    <mxGeometry x="182.5" y="204" width="120" height="80" as="geometry"/>
                </mxCell>
                <mxCell id="55" value="&lt;i&gt;Core Domain&lt;/i&gt;" style="text;html=1;strokeColor=none;fillColor=none;align=center;verticalAlign=middle;whiteSpace=wrap;rounded=0;dashed=1;" vertex="1" parent="32">
                    <mxGeometry x="260" y="13" width="60" height="30" as="geometry"/>
                </mxCell>
                <mxCell id="45" value="Supplier-Customer" style="edgeStyle=none;html=1;exitX=0.5;exitY=0;exitDx=0;exitDy=0;entryX=0.5;entryY=1;entryDx=0;entryDy=0;fontSize=18;" parent="1" source="14" target="26" edge="1">
                    <mxGeometry relative="1" as="geometry"/>
                </mxCell>
                <mxCell id="46" style="edgeStyle=orthogonalEdgeStyle;html=1;exitX=1;exitY=0.5;exitDx=0;exitDy=0;entryX=0.5;entryY=1;entryDx=0;entryDy=0;fontSize=18;rounded=0;" parent="1" source="14" target="18" edge="1">
                    <mxGeometry relative="1" as="geometry"/>
                </mxCell>
                <mxCell id="47" value="Supplier-Customer" style="edgeLabel;html=1;align=center;verticalAlign=middle;resizable=0;points=[];fontSize=18;" parent="46" vertex="1" connectable="0">
                    <mxGeometry x="-0.2104" y="-5" relative="1" as="geometry">
                        <mxPoint x="-1" y="-6" as="offset"/>
                    </mxGeometry>
                </mxCell>
                <mxCell id="49" value="Shared Kernel" style="rounded=0;html=1;exitX=0;exitY=1;exitDx=0;exitDy=0;entryX=1;entryY=0;entryDx=0;entryDy=0;fontSize=18;" parent="1" source="6" target="14" edge="1">
                    <mxGeometry x="-1" y="40" relative="1" as="geometry">
                        <mxPoint x="6" y="-4" as="offset"/>
                    </mxGeometry>
                </mxCell>
                <mxCell id="50" value="Shared Kernel&lt;br&gt;" style="edgeStyle=none;rounded=0;html=1;exitX=0;exitY=0;exitDx=0;exitDy=0;entryX=1;entryY=0.75;entryDx=0;entryDy=0;fontSize=18;" parent="1" source="6" target="26" edge="1">
                    <mxGeometry x="-0.5493" y="-20" relative="1" as="geometry">
                        <mxPoint as="offset"/>
                    </mxGeometry>
                </mxCell>
                <mxCell id="51" style="edgeStyle=orthogonalEdgeStyle;rounded=0;html=1;exitX=0.5;exitY=0;exitDx=0;exitDy=0;entryX=1;entryY=0.5;entryDx=0;entryDy=0;fontSize=18;" parent="1" source="18" target="26" edge="1">
                    <mxGeometry relative="1" as="geometry"/>
                </mxCell>
                <mxCell id="52" value="Supplier-Customer" style="edgeLabel;html=1;align=center;verticalAlign=middle;resizable=0;points=[];fontSize=18;" parent="51" vertex="1" connectable="0">
                    <mxGeometry x="0.139" y="8" relative="1" as="geometry">
                        <mxPoint x="1" y="-9" as="offset"/>
                    </mxGeometry>
                </mxCell>
                <mxCell id="53" value="Shared Kernel" style="edgeStyle=orthogonalEdgeStyle;rounded=0;html=1;exitX=1;exitY=0.5;exitDx=0;exitDy=0;fontSize=18;" parent="1" source="6" target="18" edge="1">
                    <mxGeometry x="-0.0137" y="-21" relative="1" as="geometry">
                        <mxPoint as="offset"/>
                    </mxGeometry>
                </mxCell>
            </root>
        </mxGraphModel>
    </diagram>
</mxfile>